<svg width="185" height="103" viewBox="0 0 185 103" fill="none" xmlns="http://www.w3.org/2000/svg">
<g clip-path="url(#clip0_333_170)">
<path d="M16.2917 35H98.2917V90H16.2917V35Z" fill="#8AB07E"/>
<path d="M56.2917 0L112.583 43.5H0L56.2917 0Z" fill="#8AB07E"/>
<path d="M88.2917 35H170.292V90H88.2917V35Z" fill="#6796A7"/>
<path d="M128.292 0L184.583 43.5H72L128.292 0Z" fill="#6796A7"/>
<path d="M36.7084 58H51.5V103V104.5H53H135H136.5V103V58H149.292H153.686L150.209 55.3131L93.9172 11.8131L93 11.1043L92.0828 11.8131L35.7912 55.3131L32.3142 58H36.7084Z" fill="#3B674B" stroke="#FDF5F0" stroke-width="3"/>
<rect x="102" y="78" width="15" height="25" fill="#FDF5F0"/>
<rect x="67" y="61" width="17" height="17" fill="#FDF5F0"/>
<line x1="75.5" y1="61" x2="75.5" y2="78" stroke="#3B674B"/>
<line x1="67" y1="69.5" x2="84" y2="69.5" stroke="#3B674B"/>
<path d="M113.5 29.5C112.5 31 111.876 31.2661 109.769 32.2026C102.567 35.4034 98.0258 36.2266 90.3421 37.6579C89.0109 37.9058 84.7232 38.9638 83.4487 39.3809C81.2203 40.1102 78.9821 40.7174 76.7083 41.2733C74.4173 41.8333 72.0923 42.1594 69.8193 42.7277C66.5539 43.544 64.0966 43.7034 60.7368 43.5789C59.9471 43.5497 56.7132 43.2415 56 42.9868" stroke="black" stroke-linecap="round"/>
<path d="M56 42.9868C56.1953 43.5728 57.8878 44.4283 58.3684 44.7631C59.8728 45.8111 60.2239 45.8606 61.9211 46.5394C68.6564 49.2336 75.8734 50.6996 82.7215 53.0885C84.7112 53.7825 86.714 54.443 88.7113 55.1137C89.7465 55.4614 90.4277 55.9216 91.5263 56.0131C91.5263 56.0131 93.5942 56.848 94.4868 57.1973C96.783 58.0959 98.9726 58.5074 101.332 59.2581C106.298 60.8383 111.353 62.2879 116.408 63.5588C119.574 64.3547 120.809 65.3981 124.092 65.4868C125.003 65.5114 128.305 65.9975 129.208 66.194C130.314 66.4343 133.373 66.194 134.5 66.194" stroke="black" stroke-linecap="round"/>
<ellipse cx="109.289" cy="35.2894" rx="1.18421" ry="2.36842" fill="#43ADD0"/>
<ellipse cx="97.4474" cy="38.8421" rx="1.18421" ry="2.36842" fill="#FFF73C"/>
<ellipse cx="84.421" cy="41.2105" rx="1.18421" ry="2.36842" fill="#43ADD0"/>
<ellipse cx="71.3947" cy="44.7631" rx="1.18421" ry="2.36842" fill="#EF3333"/>
<ellipse cx="57.1842" cy="45.9473" rx="1.18421" ry="2.36842" fill="#FFF73C"/>
<ellipse cx="67.8421" cy="50.6842" rx="1.18421" ry="2.36842" fill="#FF8E58"/>
<ellipse cx="79.6842" cy="54.2368" rx="1.18421" ry="2.36842" fill="#FFF73C"/>
<ellipse cx="92.7105" cy="58.9736" rx="1.18421" ry="2.36842" fill="#FF8E58"/>
<ellipse cx="104.553" cy="62.5263" rx="1.18421" ry="2.36842" fill="#EF3333"/>
<ellipse cx="115.211" cy="64.8947" rx="1.18421" ry="2.36842" fill="#43ADD0"/>
<ellipse cx="124.684" cy="67.2631" rx="1.18421" ry="2.36842" fill="#FFF73C"/>
<ellipse cx="134.158" cy="68.4473" rx="1.18421" ry="2.36842" fill="#EF3333"/>
<path d="M160.988 66.5443C160.988 69.5563 158.547 71.9981 155.534 71.9981C152.522 71.9981 150.081 69.5563 150.081 66.5443C150.081 63.5322 152.522 61.0904 155.534 61.0904C158.547 61.0904 160.988 63.5322 160.988 66.5443Z" fill="#E2FAFF"/>
<path d="M163.687 78.1337C163.687 82.6518 160.025 86.3145 155.506 86.3145C150.988 86.3145 147.326 82.6518 147.326 78.1337C147.326 73.6156 150.988 69.9529 155.506 69.9529C160.025 69.9529 163.687 73.6156 163.687 78.1337Z" fill="#E2FAFF"/>
<path d="M166.566 91.0866C166.566 97.1108 161.683 101.994 155.659 101.994C149.634 101.994 144.751 97.1108 144.751 91.0866C144.751 85.0625 149.634 80.1789 155.659 80.1789C161.683 80.1789 166.566 85.0625 166.566 91.0866Z" fill="#E2FAFF"/>
<circle cx="155.535" cy="74.0434" r="0.681733" fill="black"/>
<circle cx="155.535" cy="76.7703" r="0.681733" fill="black"/>
<circle cx="155.535" cy="79.4972" r="0.681733" fill="black"/>
<path d="M142.104 74.4524L143.945 78.1338L147.558 78.5428" stroke="#3D2B17" stroke-width="0.5"/>
<path d="M163.715 77.3687L167.324 76.3643L169.231 73.3616" stroke="#3D2B17" stroke-width="0.5"/>
<circle cx="154.171" cy="64.4991" r="0.681733" fill="black"/>
<circle cx="156.898" cy="64.4991" r="0.681733" fill="black"/>
<path d="M152.808 67.9077C154.444 69.6868 156.625 69.6868 158.261 68.1301" stroke="black" stroke-width="0.5" stroke-linecap="round" stroke-dasharray="1 1"/>
<path d="M158.306 65.8597L155.305 66.7255L155.198 65.5495L158.306 65.8597Z" fill="#FF8E58"/>
<path d="M153.08 58.3635C153.08 57.6104 153.813 57 154.717 57H156.353C157.256 57 157.989 57.6104 157.989 58.3635V61.0904C157.989 61.8434 157.256 62.4539 156.353 62.4539H154.717C153.813 62.4539 153.08 61.8434 153.08 61.0904V58.3635Z" fill="black"/>
<path d="M159.625 61.7721C159.625 62.1486 157.794 62.4539 155.535 62.4539C153.276 62.4539 151.444 62.1486 151.444 61.7721C151.444 61.3956 153.276 61.0904 155.535 61.0904C157.794 61.0904 159.625 61.3956 159.625 61.7721Z" fill="black"/>
</g>
<defs>
<clipPath id="clip0_333_170">
<rect width="184.583" height="103" fill="white"/>
</clipPath>
</defs>
</svg>
