<svg width="212" height="58" viewBox="0 0 212 58" fill="none" xmlns="http://www.w3.org/2000/svg">
<path d="M19.5237 5.4V26.616L35.0277 5.4L35.4117 5.736L26.8197 17.448L39.5877 39H35.1237L24.3717 20.808L19.5237 27.48V39H15.5397V5.4H19.5237ZM63.0031 5.4V5.88H47.8831V20.28H61.8991V20.76H47.8831V38.52H64.0591V39H43.8991V5.4H63.0031ZM69.5018 39H68.8778V5.4H70.5098L90.4778 36.456V5.4H91.1018V39H87.5978L69.5018 11.16V39ZM101.411 5.448C102.819 5.384 104.195 5.352 105.539 5.352C106.915 5.352 108.355 5.496 109.859 5.784C111.395 6.072 112.899 6.616 114.371 7.416C115.875 8.184 117.139 9.192 118.163 10.44C119.219 11.656 120.067 13.272 120.707 15.288C121.347 17.304 121.667 19.752 121.667 22.632C121.667 25.512 121.187 28.104 120.227 30.408C119.299 32.68 118.019 34.424 116.387 35.64C113.219 38.008 109.395 39.192 104.915 39.192C103.347 39.192 101.699 39.128 99.9709 39H97.5709V5.448H101.411ZM101.555 38.616C102.227 38.68 103.075 38.712 104.099 38.712C105.123 38.712 105.891 38.696 106.403 38.664C106.915 38.632 107.619 38.504 108.515 38.28C109.411 38.024 110.243 37.688 111.011 37.272C111.779 36.856 112.579 36.248 113.411 35.448C114.275 34.616 115.011 33.64 115.619 32.52C116.995 29.896 117.683 26.472 117.683 22.248C117.683 19.24 117.315 16.648 116.579 14.472C115.843 12.264 114.995 10.632 114.035 9.576C113.107 8.52 111.971 7.688 110.627 7.08C109.283 6.44 108.211 6.072 107.411 5.976C106.611 5.88 105.683 5.832 104.627 5.832C103.571 5.832 102.547 5.88 101.555 5.976V38.616ZM124.164 39H123.588L137.94 5.4L138.468 5.16L150.564 39H146.484L142.74 28.44H128.724L124.164 39ZM136.452 10.584L128.916 27.96H142.596L136.452 10.584ZM173.139 39H154.899V5.4H158.883V38.52H173.139V39ZM197.066 5.4V5.88H181.946V20.28H195.962V20.76H181.946V38.52H198.122V39H177.962V5.4H197.066Z" fill="black"/>
<path d="M19.5237 5.4H19.7737V5.15H19.5237V5.4ZM19.5237 26.616H19.2737V27.3818L19.7255 26.7635L19.5237 26.616ZM35.0277 5.4L35.1923 5.21185L34.9869 5.03211L34.8258 5.25249L35.0277 5.4ZM35.4117 5.736L35.6133 5.88388L35.749 5.69891L35.5763 5.54785L35.4117 5.736ZM26.8197 17.448L26.6181 17.3001L26.5204 17.4333L26.6046 17.5754L26.8197 17.448ZM39.5877 39V39.25H40.0264L39.8028 38.8726L39.5877 39ZM35.1237 39L34.9085 39.1272L34.981 39.25H35.1237V39ZM24.3717 20.808L24.5869 20.6808L24.3932 20.3531L24.1694 20.661L24.3717 20.808ZM19.5237 27.48L19.3214 27.333L19.2737 27.3988V27.48H19.5237ZM19.5237 39V39.25H19.7737V39H19.5237ZM15.5397 39H15.2897V39.25H15.5397V39ZM15.5397 5.4V5.15H15.2897V5.4H15.5397ZM19.2737 5.4V26.616H19.7737V5.4H19.2737ZM19.7255 26.7635L35.2295 5.5475L34.8258 5.25249L19.3218 26.4685L19.7255 26.7635ZM34.8631 5.58814L35.2471 5.92414L35.5763 5.54785L35.1923 5.21185L34.8631 5.58814ZM35.2101 5.58812L26.6181 17.3001L27.0213 17.5959L35.6133 5.88388L35.2101 5.58812ZM26.6046 17.5754L39.3726 39.1274L39.8028 38.8726L27.0348 17.3206L26.6046 17.5754ZM39.5877 38.75H35.1237V39.25H39.5877V38.75ZM35.3389 38.8728L24.5869 20.6808L24.1565 20.9352L34.9085 39.1272L35.3389 38.8728ZM24.1694 20.661L19.3214 27.333L19.7259 27.627L24.5739 20.955L24.1694 20.661ZM19.2737 27.48V39H19.7737V27.48H19.2737ZM19.5237 38.75H15.5397V39.25H19.5237V38.75ZM15.7897 39V5.4H15.2897V39H15.7897ZM15.5397 5.65H19.5237V5.15H15.5397V5.65ZM63.0031 5.4H63.2531V5.15H63.0031V5.4ZM63.0031 5.88V6.13H63.2531V5.88H63.0031ZM47.8831 5.88V5.63H47.6331V5.88H47.8831ZM47.8831 20.28H47.6331V20.53H47.8831V20.28ZM61.8991 20.28H62.1491V20.03H61.8991V20.28ZM61.8991 20.76V21.01H62.1491V20.76H61.8991ZM47.8831 20.76V20.51H47.6331V20.76H47.8831ZM47.8831 38.52H47.6331V38.77H47.8831V38.52ZM64.0591 38.52H64.3091V38.27H64.0591V38.52ZM64.0591 39V39.25H64.3091V39H64.0591ZM43.8991 39H43.6491V39.25H43.8991V39ZM43.8991 5.4V5.15H43.6491V5.4H43.8991ZM62.7531 5.4V5.88H63.2531V5.4H62.7531ZM63.0031 5.63H47.8831V6.13H63.0031V5.63ZM47.6331 5.88V20.28H48.1331V5.88H47.6331ZM47.8831 20.53H61.8991V20.03H47.8831V20.53ZM61.6491 20.28V20.76H62.1491V20.28H61.6491ZM61.8991 20.51H47.8831V21.01H61.8991V20.51ZM47.6331 20.76V38.52H48.1331V20.76H47.6331ZM47.8831 38.77H64.0591V38.27H47.8831V38.77ZM63.8091 38.52V39H64.3091V38.52H63.8091ZM64.0591 38.75H43.8991V39.25H64.0591V38.75ZM44.1491 39V5.4H43.6491V39H44.1491ZM43.8991 5.65H63.0031V5.15H43.8991V5.65ZM69.5018 39V39.25H69.7518V39H69.5018ZM68.8778 39H68.6278V39.25H68.8778V39ZM68.8778 5.4V5.15H68.6278V5.4H68.8778ZM70.5098 5.4L70.7201 5.26479L70.6463 5.15H70.5098V5.4ZM90.4778 36.456L90.2675 36.5912L90.7278 37.3071V36.456H90.4778ZM90.4778 5.4V5.15H90.2278V5.4H90.4778ZM91.1018 5.4H91.3518V5.15H91.1018V5.4ZM91.1018 39V39.25H91.3518V39H91.1018ZM87.5978 39L87.3882 39.1362L87.4621 39.25H87.5978V39ZM69.5018 11.16L69.7114 11.0238L69.2518 10.3167V11.16H69.5018ZM69.5018 38.75H68.8778V39.25H69.5018V38.75ZM69.1278 39V5.4H68.6278V39H69.1278ZM68.8778 5.65H70.5098V5.15H68.8778V5.65ZM70.2995 5.5352L90.2675 36.5912L90.6881 36.3208L70.7201 5.26479L70.2995 5.5352ZM90.7278 36.456V5.4H90.2278V36.456H90.7278ZM90.4778 5.65H91.1018V5.15H90.4778V5.65ZM90.8518 5.4V39H91.3518V5.4H90.8518ZM91.1018 38.75H87.5978V39.25H91.1018V38.75ZM87.8074 38.8638L69.7114 11.0238L69.2922 11.2962L87.3882 39.1362L87.8074 38.8638ZM69.2518 11.16V39H69.7518V11.16H69.2518ZM101.411 5.448V5.69826L101.422 5.69774L101.411 5.448ZM109.859 5.784L109.812 6.02954L109.813 6.02972L109.859 5.784ZM114.371 7.416L114.252 7.63573L114.257 7.63865L114.371 7.416ZM118.163 10.44L117.97 10.5986L117.974 10.6039L118.163 10.44ZM120.707 15.288L120.945 15.2124L120.707 15.288ZM120.227 30.408L119.996 30.3118L119.995 30.3135L120.227 30.408ZM116.387 35.64L116.238 35.4395L116.237 35.4398L116.387 35.64ZM99.9709 39L99.9894 38.7507L99.9802 38.75H99.9709V39ZM97.5709 39H97.3209V39.25H97.5709V39ZM97.5709 5.448V5.198H97.3209V5.448H97.5709ZM101.555 38.616H101.305V38.8433L101.531 38.8649L101.555 38.616ZM108.515 38.28L108.576 38.5227L108.584 38.5204L108.515 38.28ZM111.011 37.272L111.13 37.4918L111.011 37.272ZM113.411 35.448L113.584 35.6282L113.584 35.6281L113.411 35.448ZM115.619 32.52L115.839 32.6393L115.84 32.6361L115.619 32.52ZM116.579 14.472L116.342 14.5511L116.342 14.5521L116.579 14.472ZM114.035 9.576L113.847 9.74105L113.85 9.74417L114.035 9.576ZM110.627 7.08L110.519 7.30576L110.524 7.30778L110.627 7.08ZM107.411 5.976L107.381 6.22422V6.22422L107.411 5.976ZM101.555 5.976L101.531 5.72716L101.305 5.74902V5.976H101.555ZM101.422 5.69774C102.827 5.6339 104.199 5.602 105.539 5.602V5.102C104.191 5.102 102.811 5.13409 101.4 5.19826L101.422 5.69774ZM105.539 5.602C106.898 5.602 108.322 5.74418 109.812 6.02954L109.906 5.53846C108.388 5.24782 106.932 5.102 105.539 5.102V5.602ZM109.813 6.02972C111.321 6.31257 112.801 6.84722 114.252 7.63565L114.49 7.19634C112.997 6.38478 111.468 5.83142 109.905 5.53828L109.813 6.02972ZM114.257 7.63865C115.732 8.39173 116.969 9.37841 117.97 10.5986L118.356 10.2814C117.309 9.00559 116.018 7.97626 114.485 7.19335L114.257 7.63865ZM117.974 10.6039C119.002 11.7875 119.836 13.3704 120.469 15.3636L120.945 15.2124C120.298 13.1736 119.436 11.5245 118.352 10.2761L117.974 10.6039ZM120.469 15.3636C121.099 17.3481 121.417 19.7691 121.417 22.632H121.917C121.917 19.7349 121.595 17.2599 120.945 15.2124L120.469 15.3636ZM121.417 22.632C121.417 25.484 120.942 28.0426 119.996 30.3118L120.458 30.5042C121.432 28.1654 121.917 25.54 121.917 22.632H121.417ZM119.995 30.3135C119.081 32.552 117.826 34.2558 116.238 35.4395L116.536 35.8405C118.212 34.5922 119.517 32.808 120.458 30.5025L119.995 30.3135ZM116.237 35.4398C113.118 37.7712 109.348 38.942 104.915 38.942V39.442C109.441 39.442 113.32 38.2448 116.537 35.8402L116.237 35.4398ZM104.915 38.942C103.354 38.942 101.712 38.8783 99.9894 38.7507L99.9525 39.2493C101.686 39.3777 103.34 39.442 104.915 39.442V38.942ZM99.9709 38.75H97.5709V39.25H99.9709V38.75ZM97.8209 39V5.448H97.3209V39H97.8209ZM97.5709 5.698H101.411V5.198H97.5709V5.698ZM101.531 38.8649C102.214 38.9299 103.071 38.962 104.099 38.962V38.462C103.079 38.462 102.24 38.4301 101.579 38.3671L101.531 38.8649ZM104.099 38.962C105.124 38.962 105.898 38.946 106.419 38.9135L106.387 38.4145C105.883 38.446 105.122 38.462 104.099 38.462V38.962ZM106.419 38.9135C106.953 38.8801 107.675 38.7478 108.576 38.5225L108.454 38.0375C107.563 38.2602 106.877 38.3839 106.387 38.4145L106.419 38.9135ZM108.584 38.5204C109.496 38.2597 110.345 37.917 111.13 37.4918L110.892 37.0522C110.141 37.459 109.326 37.7883 108.446 38.0396L108.584 38.5204ZM111.13 37.4918C111.923 37.0623 112.741 36.4391 113.584 35.6282L113.238 35.2678C112.417 36.0569 111.635 36.6497 110.892 37.0522L111.13 37.4918ZM113.584 35.6281C114.468 34.7772 115.219 33.7804 115.839 32.6393L115.399 32.4007C114.803 33.4996 114.082 34.4548 113.238 35.2679L113.584 35.6281ZM115.84 32.6361C117.241 29.9643 117.933 26.4963 117.933 22.248H117.433C117.433 26.4477 116.748 29.8277 115.398 32.4039L115.84 32.6361ZM117.933 22.248C117.933 19.2207 117.563 16.6003 116.816 14.3919L116.342 14.5521C117.067 16.6957 117.433 19.2593 117.433 22.248H117.933ZM116.816 14.3929C116.075 12.1702 115.214 10.5008 114.22 9.40783L113.85 9.74417C114.776 10.7632 115.611 12.3578 116.342 14.5511L116.816 14.3929ZM114.223 9.41097C113.27 8.32695 112.105 7.47414 110.73 6.85222L110.524 7.30778C111.837 7.90186 112.944 8.71305 113.847 9.74103L114.223 9.41097ZM110.734 6.85428C109.383 6.21074 108.282 5.82868 107.441 5.72778L107.381 6.22422C108.14 6.31531 109.183 6.66925 110.519 7.30571L110.734 6.85428ZM107.441 5.72778C106.628 5.63029 105.69 5.582 104.627 5.582V6.082C105.676 6.082 106.594 6.1297 107.381 6.22422L107.441 5.72778ZM104.627 5.582C103.563 5.582 102.531 5.63034 101.531 5.72716L101.579 6.22484C102.563 6.12965 103.579 6.082 104.627 6.082V5.582ZM101.305 5.976V38.616H101.805V5.976H101.305ZM124.164 39V39.25H124.329L124.394 39.0991L124.164 39ZM123.588 39L123.359 38.9018L123.21 39.25H123.588V39ZM137.94 5.4L137.837 5.17241L137.749 5.21256L137.711 5.3018L137.94 5.4ZM138.468 5.16L138.704 5.07585L138.612 4.81995L138.365 4.93241L138.468 5.16ZM150.564 39V39.25H150.919L150.8 38.9159L150.564 39ZM146.484 39L146.249 39.0835L146.308 39.25H146.484V39ZM142.74 28.44L142.976 28.3565L142.917 28.19H142.74V28.44ZM128.724 28.44V28.19H128.56L128.495 28.3409L128.724 28.44ZM136.452 10.584L136.688 10.5007L136.476 9.90107L136.223 10.4845L136.452 10.584ZM128.916 27.96L128.687 27.8605L128.536 28.21H128.916V27.96ZM142.596 27.96V28.21H142.95L142.832 27.8767L142.596 27.96ZM124.164 38.75H123.588V39.25H124.164V38.75ZM123.818 39.0982L138.17 5.4982L137.711 5.3018L123.359 38.9018L123.818 39.0982ZM138.044 5.62759L138.572 5.38759L138.365 4.93241L137.837 5.17241L138.044 5.62759ZM138.233 5.24415L150.329 39.0841L150.8 38.9159L138.704 5.07585L138.233 5.24415ZM150.564 38.75H146.484V39.25H150.564V38.75ZM146.72 38.9165L142.976 28.3565L142.505 28.5235L146.249 39.0835L146.72 38.9165ZM142.74 28.19H128.724V28.69H142.74V28.19ZM128.495 28.3409L123.935 38.9009L124.394 39.0991L128.954 28.5391L128.495 28.3409ZM136.223 10.4845L128.687 27.8605L129.146 28.0595L136.682 10.6835L136.223 10.4845ZM128.916 28.21H142.596V27.71H128.916V28.21ZM142.832 27.8767L136.688 10.5007L136.217 10.6673L142.361 28.0433L142.832 27.8767ZM173.139 39V39.25H173.389V39H173.139ZM154.899 39H154.649V39.25H154.899V39ZM154.899 5.4V5.15H154.649V5.4H154.899ZM158.883 5.4H159.133V5.15H158.883V5.4ZM158.883 38.52H158.633V38.77H158.883V38.52ZM173.139 38.52H173.389V38.27H173.139V38.52ZM173.139 38.75H154.899V39.25H173.139V38.75ZM155.149 39V5.4H154.649V39H155.149ZM154.899 5.65H158.883V5.15H154.899V5.65ZM158.633 5.4V38.52H159.133V5.4H158.633ZM158.883 38.77H173.139V38.27H158.883V38.77ZM172.889 38.52V39H173.389V38.52H172.889ZM197.066 5.4H197.316V5.15H197.066V5.4ZM197.066 5.88V6.13H197.316V5.88H197.066ZM181.946 5.88V5.63H181.696V5.88H181.946ZM181.946 20.28H181.696V20.53H181.946V20.28ZM195.962 20.28H196.212V20.03H195.962V20.28ZM195.962 20.76V21.01H196.212V20.76H195.962ZM181.946 20.76V20.51H181.696V20.76H181.946ZM181.946 38.52H181.696V38.77H181.946V38.52ZM198.122 38.52H198.372V38.27H198.122V38.52ZM198.122 39V39.25H198.372V39H198.122ZM177.962 39H177.712V39.25H177.962V39ZM177.962 5.4V5.15H177.712V5.4H177.962ZM196.816 5.4V5.88H197.316V5.4H196.816ZM197.066 5.63H181.946V6.13H197.066V5.63ZM181.696 5.88V20.28H182.196V5.88H181.696ZM181.946 20.53H195.962V20.03H181.946V20.53ZM195.712 20.28V20.76H196.212V20.28H195.712ZM195.962 20.51H181.946V21.01H195.962V20.51ZM181.696 20.76V38.52H182.196V20.76H181.696ZM181.946 38.77H198.122V38.27H181.946V38.77ZM197.872 38.52V39H198.372V38.52H197.872ZM198.122 38.75H177.962V39.25H198.122V38.75ZM178.212 39V5.4H177.712V39H178.212ZM177.962 5.65H197.066V5.15H177.962V5.65Z" fill="black"/>
<path d="M15.665 52C15.4494 52 15.3416 51.8814 15.3416 51.6442V43.0782C15.3416 42.841 15.4494 42.7224 15.665 42.7224H16.2603C16.4759 42.7224 16.5837 42.841 16.5837 43.0782V46.6431H21.0996V43.0782C21.0996 42.841 21.2074 42.7224 21.4231 42.7224H22.0183C22.234 42.7224 22.3418 42.841 22.3418 43.0782V51.6442C22.3418 51.8814 22.234 52 22.0183 52H21.4231C21.2074 52 21.0996 51.8814 21.0996 51.6442V47.7041H16.5837V51.6442C16.5837 51.8814 16.4759 52 16.2603 52H15.665ZM24.0369 47.3612C24.0369 45.8516 24.4078 44.6698 25.1497 43.8158C25.8958 42.9575 26.9698 42.5283 28.3716 42.5283C29.7734 42.5283 30.8452 42.9575 31.587 43.8158C32.3332 44.6698 32.7063 45.8516 32.7063 47.3612C32.7063 48.8708 32.3332 50.0548 31.587 50.9131C30.8452 51.7671 29.7734 52.1941 28.3716 52.1941C26.9698 52.1941 25.8958 51.7671 25.1497 50.9131C24.4078 50.0548 24.0369 48.8708 24.0369 47.3612ZM25.3632 47.3612C25.3632 48.5689 25.6112 49.5092 26.1072 50.182C26.6032 50.8505 27.358 51.1848 28.3716 51.1848C29.3852 51.1848 30.14 50.8505 30.636 50.182C31.132 49.5092 31.38 48.5689 31.38 47.3612C31.38 46.1535 31.132 45.2154 30.636 44.5469C30.14 43.874 29.3852 43.5376 28.3716 43.5376C27.358 43.5376 26.6032 43.874 26.1072 44.5469C25.6112 45.2154 25.3632 46.1535 25.3632 47.3612ZM34.7249 52C34.5092 52 34.4014 51.8814 34.4014 51.6442V43.0782C34.4014 42.841 34.5092 42.7224 34.7249 42.7224H36.1029C36.2668 42.7224 36.3897 42.8518 36.4717 43.1106L38.322 48.9139C38.5118 49.5092 38.6239 49.8693 38.6584 49.9944C38.693 50.1152 38.7426 50.3394 38.8073 50.6672H38.8461C38.9108 50.3394 38.9604 50.1152 38.9949 49.9944C39.0294 49.8693 39.1415 49.5092 39.3313 48.9139L41.1816 43.1106C41.2636 42.8518 41.3865 42.7224 41.5504 42.7224H42.9285C43.1441 42.7224 43.252 42.841 43.252 43.0782V51.6442C43.252 51.8814 43.1441 52 42.9285 52H42.3333C42.1176 52 42.0098 51.8814 42.0098 51.6442V44.8574C42.0098 44.6849 42.0141 44.5124 42.0227 44.3398H41.9968L39.6095 51.6053C39.5232 51.8684 39.3809 52 39.1825 52H38.4708C38.2724 52 38.1301 51.8684 38.0438 51.6053L35.6565 44.3398H35.6306C35.6392 44.5124 35.6436 44.6849 35.6436 44.8574V51.6442C35.6436 51.8814 35.5357 52 35.3201 52H34.7249ZM45.7751 52C45.5595 52 45.4517 51.8814 45.4517 51.6442V43.0782C45.4517 42.841 45.5595 42.7224 45.7751 42.7224H51.4362C51.6734 42.7224 51.792 42.8195 51.792 43.0135V43.4923C51.792 43.6864 51.6734 43.7834 51.4362 43.7834H46.6938V46.656H51.048C51.2852 46.656 51.4038 46.7531 51.4038 46.9471V47.4259C51.4038 47.62 51.2852 47.717 51.048 47.717H46.6938V50.939H51.6302C51.8675 50.939 51.9861 51.036 51.9861 51.2301V51.7089C51.9861 51.903 51.8675 52 51.6302 52H45.7751ZM53.1636 47.3612C53.1636 45.8516 53.5345 44.6698 54.2764 43.8158C55.0225 42.9575 56.0965 42.5283 57.4983 42.5283C58.9001 42.5283 59.9719 42.9575 60.7137 43.8158C61.4599 44.6698 61.833 45.8516 61.833 47.3612C61.833 48.8708 61.4599 50.0548 60.7137 50.9131C59.9719 51.7671 58.9001 52.1941 57.4983 52.1941C56.0965 52.1941 55.0225 51.7671 54.2764 50.9131C53.5345 50.0548 53.1636 48.8708 53.1636 47.3612ZM54.4899 47.3612C54.4899 48.5689 54.7379 49.5092 55.2339 50.182C55.7299 50.8505 56.4847 51.1848 57.4983 51.1848C58.5119 51.1848 59.2667 50.8505 59.7627 50.182C60.2587 49.5092 60.5067 48.5689 60.5067 47.3612C60.5067 46.1535 60.2587 45.2154 59.7627 44.5469C59.2667 43.874 58.5119 43.5376 57.4983 43.5376C56.4847 43.5376 55.7299 43.874 55.2339 44.5469C54.7379 45.2154 54.4899 46.1535 54.4899 47.3612ZM62.8423 43.1106C62.7733 42.8518 62.8293 42.7224 63.0105 42.7224H63.7998C63.9378 42.7224 64.0306 42.8216 64.078 43.02L65.5208 49.2374C65.5811 49.4876 65.648 49.7593 65.7213 50.0526C65.799 50.3459 65.8658 50.6219 65.9219 50.8807H65.9542C65.9974 50.6263 66.047 50.3739 66.103 50.1238C66.1634 49.8736 66.2303 49.5803 66.3036 49.2439L67.7787 43.0718C67.8348 42.8389 67.9728 42.7224 68.1927 42.7224H69.0856C69.3055 42.7224 69.4436 42.8389 69.4996 43.0718L70.9747 49.2439C71.0481 49.5803 71.1128 49.8736 71.1688 50.1238C71.2292 50.3739 71.281 50.6263 71.3241 50.8807H71.3564C71.4125 50.6219 71.4772 50.3459 71.5505 50.0526C71.6282 49.7593 71.6972 49.4876 71.7576 49.2374L73.2003 43.02C73.2478 42.8216 73.3405 42.7224 73.4785 42.7224H74.2678C74.449 42.7224 74.505 42.8518 74.436 43.1106L72.2104 51.5018C72.1242 51.8339 71.9646 52 71.7317 52H70.923C70.7073 52 70.5542 51.8188 70.4636 51.4565L68.9044 45.2521C68.8268 44.9372 68.7707 44.6806 68.7362 44.4822C68.7017 44.2795 68.6715 44.0703 68.6456 43.8546H68.6327C68.6068 44.0703 68.5766 44.2795 68.5421 44.4822C68.5076 44.6806 68.4515 44.9372 68.3739 45.2521L66.8147 51.4565C66.7241 51.8188 66.571 52 66.3553 52H65.5466C65.3137 52 65.1541 51.8339 65.0679 51.5018L62.8423 43.1106ZM76.0664 52C75.8507 52 75.7429 51.8814 75.7429 51.6442V43.0782C75.7429 42.841 75.8507 42.7224 76.0664 42.7224H76.8945C77.1965 42.7224 77.4121 42.8302 77.5415 43.0459L81.5916 49.8326H81.6174C81.6088 49.6601 81.6045 49.4876 81.6045 49.3151V43.0782C81.6045 42.841 81.7123 42.7224 81.928 42.7224H82.5232C82.7389 42.7224 82.8467 42.841 82.8467 43.0782V51.6442C82.8467 51.8814 82.7389 52 82.5232 52H81.9539C81.6519 52 81.4363 51.8922 81.3069 51.6765L76.998 44.4757H76.9722C76.9808 44.6482 76.9851 44.8208 76.9851 44.9933V51.6442C76.9851 51.8814 76.8773 52 76.6616 52H76.0664ZM85.3699 52C85.1542 52 85.0464 51.8814 85.0464 51.6442V43.0782C85.0464 42.841 85.1542 42.7224 85.3699 42.7224H91.0309C91.2681 42.7224 91.3867 42.8195 91.3867 43.0135V43.4923C91.3867 43.6864 91.2681 43.7834 91.0309 43.7834H86.2886V46.656H90.6427C90.8799 46.656 90.9985 46.7531 90.9985 46.9471V47.4259C90.9985 47.62 90.8799 47.717 90.6427 47.717H86.2886V50.939H91.225C91.4622 50.939 91.5808 51.036 91.5808 51.2301V51.7089C91.5808 51.903 91.4622 52 91.225 52H85.3699ZM93.5864 52C93.3708 52 93.2629 51.8814 93.2629 51.6442V43.0782C93.2629 42.841 93.3708 42.7224 93.5864 42.7224H96.7113C97.9578 42.7224 98.8593 42.9553 99.4156 43.4211C99.9764 43.887 100.257 44.5016 100.257 45.265C100.257 45.9379 100.03 46.5029 99.5774 46.9601C99.1288 47.4173 98.4883 47.6804 97.6559 47.7494V47.7623C98.0958 48.0901 98.387 48.3403 98.5293 48.5128C98.6716 48.681 98.8312 48.9096 99.0081 49.1986L100.47 51.573C100.647 51.8577 100.608 52 100.354 52H99.6162C99.4135 52 99.2625 51.9159 99.1633 51.7477L97.8176 49.438C97.6235 49.1059 97.3453 48.7802 96.983 48.4611C96.6207 48.1419 96.17 47.9823 95.6309 47.9823H94.5051V51.6442C94.5051 51.8814 94.3973 52 94.1816 52H93.5864ZM94.5051 46.9213H96.3749C97.2159 46.9213 97.8629 46.8113 98.3158 46.5913C98.7687 46.367 98.9951 45.899 98.9951 45.1874C98.9951 44.6439 98.7881 44.2751 98.374 44.0811C97.96 43.8826 97.3971 43.7834 96.6854 43.7834H94.5051V46.9213ZM102.256 51.3013C102.027 51.0942 101.967 50.9131 102.075 50.7578L102.411 50.2726C102.528 50.1044 102.715 50.1173 102.974 50.3114C103.315 50.5659 103.668 50.7751 104.035 50.939C104.406 51.1029 104.855 51.1848 105.381 51.1848C105.769 51.1848 106.097 51.1266 106.364 51.0101C106.632 50.8937 106.845 50.7276 107.005 50.512C107.169 50.292 107.25 50.0267 107.25 49.7162C107.25 49.4919 107.216 49.2849 107.147 49.0951C107.082 48.901 106.977 48.7393 106.83 48.6099C106.683 48.4805 106.53 48.3791 106.371 48.3058C106.108 48.185 105.713 48.0448 105.187 47.8853C104.665 47.7257 104.208 47.5531 103.815 47.3677C103.427 47.1822 103.116 46.9579 102.883 46.6948C102.655 46.4317 102.502 46.1622 102.424 45.8861C102.351 45.6058 102.314 45.2866 102.314 44.9286C102.314 44.3808 102.474 43.9085 102.793 43.5117C103.112 43.1149 103.502 42.8518 103.964 42.7224C104.43 42.593 104.902 42.5283 105.381 42.5283C105.929 42.5283 106.405 42.5995 106.811 42.7418C107.216 42.8842 107.578 43.0696 107.897 43.2982C108.122 43.4578 108.174 43.626 108.053 43.8029L107.723 44.2751C107.624 44.4175 107.429 44.3873 107.141 44.1846C106.921 44.0293 106.651 43.8848 106.332 43.7511C106.017 43.6131 105.704 43.5441 105.394 43.5441C104.997 43.5441 104.667 43.5915 104.404 43.6864C104.141 43.777 103.934 43.9323 103.783 44.1522C103.632 44.3722 103.556 44.6267 103.556 44.9156C103.556 45.0968 103.574 45.265 103.608 45.4203C103.643 45.5712 103.731 45.7265 103.873 45.8861C104.016 46.0457 104.188 46.1686 104.391 46.2549C104.663 46.3713 105.083 46.5094 105.652 46.6689C106.226 46.8242 106.726 47.0162 107.153 47.2448C107.55 47.4561 107.835 47.6782 108.007 47.9111C108.184 48.1397 108.32 48.3899 108.415 48.6616C108.514 48.929 108.564 49.231 108.564 49.5674C108.564 50.1799 108.406 50.691 108.092 51.1007C107.777 51.5105 107.404 51.7951 106.972 51.9547C106.541 52.1143 106 52.1941 105.348 52.1941C104.568 52.1941 103.921 52.1035 103.407 51.9224C102.894 51.7412 102.51 51.5342 102.256 51.3013ZM114.147 52C113.923 52 113.865 51.8577 113.973 51.573L117.194 43.1171C117.294 42.854 117.436 42.7224 117.621 42.7224H118.527C118.713 42.7224 118.855 42.854 118.954 43.1171L122.176 51.573C122.284 51.8577 122.226 52 122.001 52H121.342C121.113 52 120.958 51.8943 120.876 51.683L120.067 49.5415H116.082L115.273 51.683C115.191 51.8943 115.036 52 114.807 52H114.147ZM116.489 48.4805H119.659L118.67 45.8926C118.579 45.651 118.488 45.3836 118.398 45.0903C118.312 44.797 118.208 44.3808 118.087 43.8417H118.061C117.941 44.3808 117.835 44.797 117.744 45.0903C117.658 45.3836 117.57 45.651 117.479 45.8926L116.489 48.4805ZM123.386 51.3013C123.157 51.0942 123.097 50.9131 123.205 50.7578L123.541 50.2726C123.658 50.1044 123.845 50.1173 124.104 50.3114C124.445 50.5659 124.799 50.7751 125.165 50.939C125.536 51.1029 125.985 51.1848 126.511 51.1848C126.899 51.1848 127.227 51.1266 127.494 51.0101C127.762 50.8937 127.975 50.7276 128.135 50.512C128.299 50.292 128.381 50.0267 128.381 49.7162C128.381 49.4919 128.346 49.2849 128.277 49.0951C128.212 48.901 128.107 48.7393 127.96 48.6099C127.813 48.4805 127.66 48.3791 127.501 48.3058C127.238 48.185 126.843 48.0448 126.317 47.8853C125.795 47.7257 125.338 47.5531 124.945 47.3677C124.557 47.1822 124.246 46.9579 124.014 46.6948C123.785 46.4317 123.632 46.1622 123.554 45.8861C123.481 45.6058 123.444 45.2866 123.444 44.9286C123.444 44.3808 123.604 43.9085 123.923 43.5117C124.242 43.1149 124.632 42.8518 125.094 42.7224C125.56 42.593 126.032 42.5283 126.511 42.5283C127.059 42.5283 127.535 42.5995 127.941 42.7418C128.346 42.8842 128.708 43.0696 129.028 43.2982C129.252 43.4578 129.304 43.626 129.183 43.8029L128.853 44.2751C128.754 44.4175 128.56 44.3873 128.271 44.1846C128.051 44.0293 127.781 43.8848 127.462 43.7511C127.147 43.6131 126.834 43.5441 126.524 43.5441C126.127 43.5441 125.797 43.5915 125.534 43.6864C125.271 43.777 125.064 43.9323 124.913 44.1522C124.762 44.3722 124.686 44.6267 124.686 44.9156C124.686 45.0968 124.704 45.265 124.738 45.4203C124.773 45.5712 124.861 45.7265 125.003 45.8861C125.146 46.0457 125.318 46.1686 125.521 46.2549C125.793 46.3713 126.213 46.5094 126.783 46.6689C127.356 46.8242 127.857 47.0162 128.284 47.2448C128.68 47.4561 128.965 47.6782 129.138 47.9111C129.314 48.1397 129.45 48.3899 129.545 48.6616C129.644 48.929 129.694 49.231 129.694 49.5674C129.694 50.1799 129.537 50.691 129.222 51.1007C128.907 51.5105 128.534 51.7951 128.102 51.9547C127.671 52.1143 127.13 52.1941 126.479 52.1941C125.698 52.1941 125.051 52.1035 124.538 51.9224C124.024 51.7412 123.64 51.5342 123.386 51.3013ZM131.305 51.3013C131.076 51.0942 131.016 50.9131 131.124 50.7578L131.46 50.2726C131.577 50.1044 131.764 50.1173 132.023 50.3114C132.364 50.5659 132.717 50.7751 133.084 50.939C133.455 51.1029 133.904 51.1848 134.43 51.1848C134.818 51.1848 135.146 51.1266 135.413 51.0101C135.681 50.8937 135.894 50.7276 136.054 50.512C136.218 50.292 136.3 50.0267 136.3 49.7162C136.3 49.4919 136.265 49.2849 136.196 49.0951C136.131 48.901 136.026 48.7393 135.879 48.6099C135.732 48.4805 135.579 48.3791 135.42 48.3058C135.157 48.185 134.762 48.0448 134.236 47.8853C133.714 47.7257 133.257 47.5531 132.864 47.3677C132.476 47.1822 132.165 46.9579 131.932 46.6948C131.704 46.4317 131.551 46.1622 131.473 45.8861C131.4 45.6058 131.363 45.2866 131.363 44.9286C131.363 44.3808 131.523 43.9085 131.842 43.5117C132.161 43.1149 132.551 42.8518 133.013 42.7224C133.479 42.593 133.951 42.5283 134.43 42.5283C134.978 42.5283 135.454 42.5995 135.86 42.7418C136.265 42.8842 136.627 43.0696 136.947 43.2982C137.171 43.4578 137.223 43.626 137.102 43.8029L136.772 44.2751C136.673 44.4175 136.479 44.3873 136.19 44.1846C135.97 44.0293 135.7 43.8848 135.381 43.7511C135.066 43.6131 134.753 43.5441 134.443 43.5441C134.046 43.5441 133.716 43.5915 133.453 43.6864C133.19 43.777 132.983 43.9323 132.832 44.1522C132.681 44.3722 132.605 44.6267 132.605 44.9156C132.605 45.0968 132.623 45.265 132.657 45.4203C132.692 45.5712 132.78 45.7265 132.922 45.8861C133.065 46.0457 133.237 46.1686 133.44 46.2549C133.712 46.3713 134.132 46.5094 134.702 46.6689C135.275 46.8242 135.776 47.0162 136.203 47.2448C136.599 47.4561 136.884 47.6782 137.057 47.9111C137.233 48.1397 137.369 48.3899 137.464 48.6616C137.563 48.929 137.613 49.231 137.613 49.5674C137.613 50.1799 137.455 50.691 137.141 51.1007C136.826 51.5105 136.453 51.7951 136.021 51.9547C135.59 52.1143 135.049 52.1941 134.397 52.1941C133.617 52.1941 132.97 52.1035 132.457 51.9224C131.943 51.7412 131.559 51.5342 131.305 51.3013ZM138.745 47.3612C138.745 45.8516 139.116 44.6698 139.858 43.8158C140.604 42.9575 141.678 42.5283 143.08 42.5283C144.482 42.5283 145.553 42.9575 146.295 43.8158C147.041 44.6698 147.415 45.8516 147.415 47.3612C147.415 48.8708 147.041 50.0548 146.295 50.9131C145.553 51.7671 144.482 52.1941 143.08 52.1941C141.678 52.1941 140.604 51.7671 139.858 50.9131C139.116 50.0548 138.745 48.8708 138.745 47.3612ZM140.071 47.3612C140.071 48.5689 140.319 49.5092 140.815 50.182C141.311 50.8505 142.066 51.1848 143.08 51.1848C144.093 51.1848 144.848 50.8505 145.344 50.182C145.84 49.5092 146.088 48.5689 146.088 47.3612C146.088 46.1535 145.84 45.2154 145.344 44.5469C144.848 43.874 144.093 43.5376 143.08 43.5376C142.066 43.5376 141.311 43.874 140.815 44.5469C140.319 45.2154 140.071 46.1535 140.071 47.3612ZM148.605 47.3612C148.605 45.8516 148.978 44.6698 149.724 43.8158C150.475 42.9575 151.551 42.5283 152.953 42.5283C153.772 42.5283 154.449 42.6685 154.984 42.9489C155.519 43.2249 155.903 43.6045 156.136 44.0875C156.257 44.3377 156.237 44.5102 156.078 44.6051L155.566 44.9027C155.394 45.0019 155.241 44.92 155.107 44.6569C154.965 44.3851 154.732 44.1307 154.408 43.8934C154.085 43.6562 153.621 43.5376 153.017 43.5376C151.939 43.5376 151.154 43.874 150.662 44.5469C150.175 45.2154 149.931 46.1535 149.931 47.3612C149.931 48.5689 150.175 49.5092 150.662 50.182C151.154 50.8505 151.939 51.1848 153.017 51.1848C153.638 51.1848 154.134 51.0425 154.505 50.7578C154.881 50.4731 155.152 50.1755 155.321 49.865C155.454 49.6148 155.61 49.5393 155.786 49.6385L156.323 49.9426C156.479 50.0332 156.492 50.2057 156.362 50.4602C156.108 50.9562 155.694 51.3703 155.12 51.7024C154.546 52.0302 153.824 52.1941 152.953 52.1941C151.551 52.1941 150.475 51.7671 149.724 50.9131C148.978 50.0548 148.605 48.8708 148.605 47.3612ZM158.504 52C158.288 52 158.18 51.8814 158.18 51.6442V43.0782C158.18 42.841 158.288 42.7224 158.504 42.7224H159.099C159.315 42.7224 159.422 42.841 159.422 43.0782V51.6442C159.422 51.8814 159.315 52 159.099 52H158.504ZM161.156 52C160.932 52 160.874 51.8577 160.982 51.573L164.203 43.1171C164.303 42.854 164.445 42.7224 164.63 42.7224H165.536C165.722 42.7224 165.864 42.854 165.963 43.1171L169.185 51.573C169.293 51.8577 169.235 52 169.01 52H168.351C168.122 52 167.967 51.8943 167.885 51.683L167.076 49.5415H163.091L162.282 51.683C162.2 51.8943 162.045 52 161.816 52H161.156ZM163.498 48.4805H166.668L165.679 45.8926C165.588 45.651 165.497 45.3836 165.407 45.0903C165.321 44.797 165.217 44.3808 165.096 43.8417H165.07C164.95 44.3808 164.844 44.797 164.753 45.0903C164.667 45.3836 164.579 45.651 164.488 45.8926L163.498 48.4805ZM168.719 43.8352C168.482 43.8352 168.364 43.7382 168.364 43.5441V43.0135C168.364 42.8195 168.482 42.7224 168.719 42.7224H175.564C175.802 42.7224 175.92 42.8195 175.92 43.0135V43.5441C175.92 43.7382 175.802 43.8352 175.564 43.8352H172.763V51.6442C172.763 51.8814 172.655 52 172.439 52H171.844C171.629 52 171.521 51.8814 171.521 51.6442V43.8352H168.719ZM177.576 52C177.361 52 177.253 51.8814 177.253 51.6442V43.0782C177.253 42.841 177.361 42.7224 177.576 42.7224H178.172C178.387 42.7224 178.495 42.841 178.495 43.0782V51.6442C178.495 51.8814 178.387 52 178.172 52H177.576ZM180.19 47.3612C180.19 45.8516 180.561 44.6698 181.303 43.8158C182.049 42.9575 183.123 42.5283 184.525 42.5283C185.927 42.5283 186.998 42.9575 187.74 43.8158C188.487 44.6698 188.86 45.8516 188.86 47.3612C188.86 48.8708 188.487 50.0548 187.74 50.9131C186.998 51.7671 185.927 52.1941 184.525 52.1941C183.123 52.1941 182.049 51.7671 181.303 50.9131C180.561 50.0548 180.19 48.8708 180.19 47.3612ZM181.516 47.3612C181.516 48.5689 181.764 49.5092 182.26 50.182C182.757 50.8505 183.511 51.1848 184.525 51.1848C185.538 51.1848 186.293 50.8505 186.789 50.182C187.285 49.5092 187.533 48.5689 187.533 47.3612C187.533 46.1535 187.285 45.2154 186.789 44.5469C186.293 43.874 185.538 43.5376 184.525 43.5376C183.511 43.5376 182.757 43.874 182.26 44.5469C181.764 45.2154 181.516 46.1535 181.516 47.3612ZM190.878 52C190.663 52 190.555 51.8814 190.555 51.6442V43.0782C190.555 42.841 190.663 42.7224 190.878 42.7224H191.706C192.008 42.7224 192.224 42.8302 192.353 43.0459L196.403 49.8326H196.429C196.421 49.6601 196.416 49.4876 196.416 49.3151V43.0782C196.416 42.841 196.524 42.7224 196.74 42.7224H197.335C197.551 42.7224 197.658 42.841 197.658 43.0782V51.6442C197.658 51.8814 197.551 52 197.335 52H196.766C196.464 52 196.248 51.8922 196.119 51.6765L191.81 44.4757H191.784C191.793 44.6482 191.797 44.8208 191.797 44.9933V51.6442C191.797 51.8814 191.689 52 191.473 52H190.878Z" fill="black"/>
</svg>
