<svg width="185" height="103" viewBox="0 0 185 103" fill="none" xmlns="http://www.w3.org/2000/svg">
<path d="M16.2917 35H98.2917V90H16.2917V35Z" fill="#8AB07E"/>
<path d="M56.2917 0L112.583 43.5H0L56.2917 0Z" fill="#8AB07E"/>
<path d="M88.2917 35H170.292V90H88.2917V35Z" fill="#6796A7"/>
<path d="M128.292 0L184.583 43.5H72L128.292 0Z" fill="#6796A7"/>
<path d="M53 48H135V103H53V48Z" fill="#3B674B"/>
<path d="M93 13L149.292 56.5H36.7084L93 13Z" fill="#3B674B"/>
<rect x="102" y="78" width="15" height="25" fill="#FDF5F0"/>
<rect x="67" y="61" width="17" height="17" fill="#FDF5F0"/>
<line x1="75.5" y1="61" x2="75.5" y2="78" stroke="#3B674B"/>
<line x1="67" y1="69.5" x2="84" y2="69.5" stroke="#3B674B"/>
<path d="M113.5 29.5C112.5 31 111.876 31.2661 109.769 32.2026C102.567 35.4034 98.0258 36.2266 90.3421 37.6579C89.0109 37.9058 84.7232 38.9638 83.4487 39.3809C81.2203 40.1102 78.9821 40.7174 76.7083 41.2733C74.4173 41.8333 72.0923 42.1594 69.8193 42.7277C66.5539 43.544 64.0966 43.7034 60.7368 43.5789C59.9471 43.5497 56.7132 43.2415 56 42.9868" stroke="black" stroke-linecap="round"/>
<path d="M56 42.9868C56.1953 43.5728 57.8878 44.4283 58.3684 44.7631C59.8728 45.8111 60.2239 45.8606 61.9211 46.5394C68.6564 49.2336 75.8734 50.6996 82.7215 53.0885C84.7112 53.7825 86.714 54.443 88.7113 55.1137C89.7465 55.4614 90.4277 55.9216 91.5263 56.0131C91.5263 56.0131 93.5942 56.848 94.4868 57.1973C96.783 58.0959 98.9726 58.5074 101.332 59.2581C106.298 60.8383 111.353 62.2879 116.408 63.5588C119.574 64.3547 120.809 65.3981 124.092 65.4868C125.003 65.5114 128.305 65.9975 129.208 66.194C130.314 66.4343 133.373 66.194 134.5 66.194" stroke="black" stroke-linecap="round"/>
<ellipse cx="109.289" cy="35.2894" rx="1.18421" ry="2.36842" fill="#43ADD0"/>
<ellipse cx="97.4474" cy="38.8421" rx="1.18421" ry="2.36842" fill="#FFF73C"/>
<ellipse cx="84.421" cy="41.2105" rx="1.18421" ry="2.36842" fill="#43ADD0"/>
<ellipse cx="71.3947" cy="44.7631" rx="1.18421" ry="2.36842" fill="#EF3333"/>
<ellipse cx="57.1842" cy="45.9473" rx="1.18421" ry="2.36842" fill="#FFF73C"/>
<ellipse cx="67.8421" cy="50.6842" rx="1.18421" ry="2.36842" fill="#FF8E58"/>
<ellipse cx="79.6842" cy="54.2368" rx="1.18421" ry="2.36842" fill="#FFF73C"/>
<ellipse cx="92.7105" cy="58.9736" rx="1.18421" ry="2.36842" fill="#FF8E58"/>
<ellipse cx="104.553" cy="62.5263" rx="1.18421" ry="2.36842" fill="#EF3333"/>
<ellipse cx="115.211" cy="64.8947" rx="1.18421" ry="2.36842" fill="#43ADD0"/>
<ellipse cx="124.684" cy="67.2631" rx="1.18421" ry="2.36842" fill="#FFF73C"/>
<ellipse cx="134.158" cy="68.4473" rx="1.18421" ry="2.36842" fill="#EF3333"/>
<path d="M159.988 66.5443C159.988 69.5563 157.547 71.9981 154.534 71.9981C151.522 71.9981 149.081 69.5563 149.081 66.5443C149.081 63.5322 151.522 61.0904 154.534 61.0904C157.547 61.0904 159.988 63.5322 159.988 66.5443Z" fill="#E2FAFF"/>
<path d="M162.687 78.1337C162.687 82.6518 159.025 86.3145 154.506 86.3145C149.988 86.3145 146.326 82.6518 146.326 78.1337C146.326 73.6156 149.988 69.9529 154.506 69.9529C159.025 69.9529 162.687 73.6156 162.687 78.1337Z" fill="#E2FAFF"/>
<path d="M165.566 91.0866C165.566 97.1108 160.683 101.994 154.659 101.994C148.634 101.994 143.751 97.1108 143.751 91.0866C143.751 85.0625 148.634 80.1789 154.659 80.1789C160.683 80.1789 165.566 85.0625 165.566 91.0866Z" fill="#E2FAFF"/>
<circle cx="154.535" cy="74.0434" r="0.681733" fill="black"/>
<circle cx="154.535" cy="76.7703" r="0.681733" fill="black"/>
<circle cx="154.535" cy="79.4972" r="0.681733" fill="black"/>
<path d="M141.104 74.4524L142.945 78.1338L146.558 78.5428" stroke="#3D2B17" stroke-width="0.5"/>
<path d="M162.715 77.3687L166.324 76.3643L168.231 73.3616" stroke="#3D2B17" stroke-width="0.5"/>
<circle cx="153.171" cy="64.4991" r="0.681733" fill="black"/>
<circle cx="155.898" cy="64.4991" r="0.681733" fill="black"/>
<path d="M151.808 67.9077C153.444 69.6868 155.625 69.6868 157.261 68.1301" stroke="black" stroke-width="0.5" stroke-linecap="round" stroke-dasharray="1 1"/>
<path d="M157.306 65.8597L154.305 66.7255L154.198 65.5495L157.306 65.8597Z" fill="#FF8E58"/>
<path d="M152.08 58.3635C152.08 57.6104 152.813 57 153.717 57H155.353C156.256 57 156.989 57.6104 156.989 58.3635V61.0904C156.989 61.8434 156.256 62.4539 155.353 62.4539H153.717C152.813 62.4539 152.08 61.8434 152.08 61.0904V58.3635Z" fill="black"/>
<path d="M158.625 61.7721C158.625 62.1486 156.794 62.4539 154.535 62.4539C152.276 62.4539 150.444 62.1486 150.444 61.7721C150.444 61.3956 152.276 61.0904 154.535 61.0904C156.794 61.0904 158.625 61.3956 158.625 61.7721Z" fill="black"/>
</svg>
